<?xml version="1.0" encoding="iso-8859-1"?>
<!-- Generator: Adobe Illustrator 19.0.0, SVG Export Plug-In . SVG Version: 6.00 Build 0)  -->
<svg version="1.1" id="Capa_1" xmlns="http://www.w3.org/2000/svg" xmlns:xlink="http://www.w3.org/1999/xlink" x="0px" y="0px"
	 viewBox="0 0 448 448" style="enable-background:new 0 0 448 448;" xml:space="preserve" fill="#424b5a">
<g>
	<g>
		<path d="M418.688,318.72c-34.624-3.168-68.384-11.968-100.288-26.176c-15.68-7.072-34.016-0.672-41.728,14.56l-21.76,43.2
			c-65.984-36.576-120.704-91.328-157.216-157.248l43.168-21.728c15.232-7.648,21.664-25.984,14.624-41.728
			C141.248,97.728,132.416,64,129.28,29.312C127.744,12.608,114.144,0,97.6,0H16C7.168,0,0,7.168,0,16
			c0,65.152,14.208,127.968,42.208,186.784c42.528,88.384,114.624,160.48,203.072,203.04C304.064,433.824,366.88,448,432,448
			c8.832,0,16-7.168,16-16v-81.6C448,333.856,435.392,320.224,418.688,318.72z"/>
	</g>
</g>
<g>
</g>
<g>
</g>
<g>
</g>
<g>
</g>
<g>
</g>
<g>
</g>
<g>
</g>
<g>
</g>
<g>
</g>
<g>
</g>
<g>
</g>
<g>
</g>
<g>
</g>
<g>
</g>
<g>
</g>
</svg>
